# xmcd
#
# Track frame offsets:
#	150
#	25122
#	43726
#	64537
#	78180
#	99682
#	125223
#	148169
#	172088
#	202298
#	220386
#	225421
#	246756
#
# Disc length: 3552 seconds
#
# Revision: 3
# Processed by: cddbd v1.5.2PL0 Copyright (c) Steve Scherf et al.
# Submitted via: EZCDAudioConverter 1.3.4.1
#
DISCID=c10dde0d
DTITLE=Various Artist - Our Gifts To You 
DYEAR=2000
DGENRE=Christmas
TTITLE0=Marvin Winans - Hark! The Herald Angels Sing
TTITLE1=Angie Winans - Have Yourself A Merry Little Christmas
TTITLE2=CeCe Winans - O Come All Ye Faithful
TTITLE3=Ann McCrary - Silent Night
TTITLE4=Pop Winans - Go Tell It On The Mountain
TTITLE5=Kirk and Kevin Whalum - Angels We Have Heard On High
TTITLE6=Reverend Virgil Caldwell - The True Meaning Of Christmas
TTITLE7=Mom Winans - What Child Is This
TTITLE8=Darwin Hobbs - Little Drummer Boy
TTITLE9=Sharon Moore-Caldwell M.D. - Mary Had  A Little Lamb
TTITLE10=Pop Winans - A Christmas Moment With
TTITLE11=Ronald Winans and Adrian Smith - Sweet Little Jesus Boy
TTITLE12=Angie Caldwell - Ryan's Song
EXTD=
EXTT0=
EXTT1=
EXTT2=
EXTT3=
EXTT4=
EXTT5=
EXTT6=
EXTT7=
EXTT8=
EXTT9=
EXTT10=
EXTT11=
EXTT12=
PLAYORDER=
